<?xml version="1.0" standalone="no"?>
<!DOCTYPE svg PUBLIC "-//W3C//DTD SVG 20010904//EN"
 "http://www.w3.org/TR/2001/REC-SVG-20010904/DTD/svg10.dtd">
<svg version="1.0" xmlns="http://www.w3.org/2000/svg"
 width="700.000000pt" height="700.000000pt" viewBox="0 0 700.000000 700.000000"
 preserveAspectRatio="xMidYMid meet">
<metadata>
Created by potrace 1.14, written by Peter Selinger 2001-2017
</metadata>
<g transform="translate(0.000000,700.000000) scale(0.100000,-0.100000)"
fill="#000000" stroke="none">
<path d="M2905 5544 c-16 -2 -79 -9 -140 -15 -493 -49 -958 -185 -1218 -357
-193 -127 -298 -285 -298 -447 0 -136 55 -241 206 -390 114 -114 212 -186 400
-297 71 -43 136 -81 143 -85 9 -6 -18 -32 -86 -85 -107 -83 -127 -114 -96
-149 32 -35 26 -38 293 159 15 10 32 5 112 -32 323 -151 849 -323 906 -297 26
12 32 61 11 79 -7 5 -61 22 -120 36 -266 66 -820 280 -792 306 46 41 211 172
304 240 539 391 980 639 1116 628 46 -4 51 -17 53 -133 2 -153 -32 -335 -123
-659 -84 -294 -82 -280 -57 -305 50 -50 70 -18 135 209 117 411 139 527 140
735 1 168 -6 194 -63 232 -49 33 -120 31 -235 -8 -115 -38 -325 -148 -496
-258 -14 -9 24 38 84 104 246 272 350 447 351 590 0 86 -25 132 -93 173 -46
27 -50 27 -227 28 -99 1 -193 0 -210 -2z m380 -109 c34 -17 55 -50 55 -91 0
-75 -81 -222 -214 -389 -102 -127 -405 -430 -606 -606 -144 -126 -382 -313
-414 -325 -24 -9 -295 149 -429 250 -165 124 -290 268 -317 364 -76 275 229
530 814 682 235 61 413 90 746 123 19 2 102 5 183 5 116 2 156 -1 182 -13z"/>
<path d="M5165 5539 c-207 -13 -666 -48 -970 -74 -257 -23 -281 -26 -297 -46
-23 -28 -23 -35 6 -64 18 -18 32 -23 53 -20 32 6 515 46 903 75 146 11 360 23
475 27 l210 6 -3 -307 c-4 -347 8 -549 63 -1046 19 -173 37 -342 40 -374 l6
-59 -63 7 c-300 30 -1284 42 -1543 19 -66 -6 -120 -11 -121 -10 -1 1 5 94 12
207 32 486 29 1094 -6 1184 -16 43 -82 46 -95 5 -4 -10 -1 -63 6 -116 18 -141
13 -628 -10 -1013 -11 -191 -15 -334 -10 -347 12 -32 40 -36 175 -23 360 34
1441 17 1671 -26 26 -5 37 -1 57 20 24 23 26 32 26 115 0 49 -16 228 -35 398
-19 169 -42 396 -51 503 -18 214 -24 682 -11 827 8 91 8 93 -17 118 -25 25
-27 25 -183 24 -87 -1 -216 -6 -288 -10z"/>
<path d="M4745 4970 c-17 -19 -17 -30 -1 -272 9 -139 24 -318 32 -398 7 -80
14 -151 14 -157 0 -7 11 -20 24 -28 26 -17 69 -8 79 17 3 8 -3 102 -13 209
-10 107 -24 288 -31 403 -11 178 -16 213 -31 228 -23 23 -51 23 -73 -2z"/>
<path d="M2410 3450 c-341 -33 -660 -113 -872 -218 -82 -42 -96 -52 -116 -92
-22 -42 -23 -53 -18 -160 8 -176 67 -408 165 -649 l48 -118 -59 -38 c-69 -44
-84 -78 -48 -107 29 -24 30 -24 89 17 28 19 52 35 55 35 2 0 34 -55 71 -122
129 -238 347 -540 393 -546 29 -4 52 14 52 42 0 12 -38 71 -86 131 -99 128
-208 296 -288 447 l-58 108 149 96 c247 162 519 322 529 312 2 -3 -1 -31 -6
-64 -6 -32 -13 -109 -16 -170 -7 -109 -6 -112 16 -124 16 -9 29 -9 45 -2 25
12 30 31 41 172 3 47 12 123 20 169 14 89 9 112 -26 131 -24 13 -56 6 -135
-30 -73 -32 -315 -177 -512 -306 -78 -51 -145 -89 -148 -84 -15 24 -97 248
-124 339 -63 210 -91 441 -58 484 35 47 331 152 556 197 408 82 874 78 981 -8
l22 -18 -21 -69 c-29 -97 -50 -230 -58 -355 -6 -115 1 -135 49 -128 30 4 48
42 48 103 1 78 28 251 56 353 15 56 23 105 19 122 -13 59 -98 109 -228 136
-89 18 -398 26 -527 14z"/>
<path d="M4502 3439 c-124 -62 -375 -433 -447 -661 -29 -92 -31 -127 -9 -174
37 -77 187 -105 711 -130 78 -4 140 -10 137 -15 -2 -4 -179 -65 -392 -134
-1224 -399 -1545 -517 -1620 -598 -54 -58 -23 -125 72 -152 274 -80 1074 -133
1841 -122 530 8 710 30 776 97 77 77 4 176 -202 275 -84 40 -123 44 -139 15
-21 -39 -2 -58 109 -115 115 -59 166 -100 142 -115 -20 -12 -110 -28 -241 -42
-152 -17 -1051 -16 -1335 0 -416 25 -711 55 -860 89 l-69 16 69 35 c155 77
455 183 1475 516 422 138 565 192 588 223 31 42 3 88 -65 104 -21 5 -153 15
-293 24 -417 25 -569 43 -607 70 -16 12 -16 17 2 81 47 174 274 535 383 609
32 22 37 23 62 10 58 -30 171 -193 275 -396 31 -60 65 -114 76 -120 26 -14 69
12 69 43 0 29 -119 251 -201 372 -73 110 -140 179 -194 202 -46 19 -62 18
-113 -7z"/>
</g>
</svg>
